<svg xmlns="http://www.w3.org/2000/svg" data-name="Layer 1" viewBox="0 0 64 80" x="0px" y="0px"><path d="M30.81,19.17V19.1c-.68-4.78-2.68-8-4.13-8s-3.46,3.21-4.14,8v.06c-.08.57-.14,1.15-.17,1.71H31C30.94,20.32,30.89,19.74,30.81,19.17Zm-1.91,0h-.14a1,1,0,0,1-1-.87A3.82,3.82,0,0,0,27.35,17a1,1,0,0,1,1.78-.92,6,6,0,0,1,.62,2A1,1,0,0,1,28.9,19.21ZM31,47.53H22.33V22.88H31ZM52.14,19.17V19.1c-.67-4.78-2.68-8-4.13-8s-3.46,3.21-4.13,8v.06c-.08.57-.13,1.15-.16,1.71h8.6C52.27,20.32,52.22,19.74,52.14,19.17Zm-1.91,0H50.1a1,1,0,0,1-1-.87A4.28,4.28,0,0,0,48.69,17a1,1,0,0,1,.43-1.35,1,1,0,0,1,1.35.43,6.5,6.5,0,0,1,.62,2A1,1,0,0,1,50.23,19.21Zm-30.09,0V19.1c-.67-4.78-2.68-8-4.13-8s-3.46,3.21-4.13,8v.06c-.08.57-.13,1.15-.16,1.71h8.6C20.27,20.32,20.22,19.74,20.14,19.17Zm-1.91,0H18.1a1,1,0,0,1-1-.87A4.28,4.28,0,0,0,16.69,17a1,1,0,0,1,.43-1.35,1,1,0,0,1,1.35.43,6.5,6.5,0,0,1,.62,2A1,1,0,0,1,18.23,19.21ZM41.67,47.53H33V22.88h8.67Zm-.2-28.36V19.1c-.67-4.78-2.67-8-4.13-8s-3.46,3.21-4.13,8v.06c-.08.57-.13,1.15-.16,1.71h8.61C41.61,20.32,41.55,19.74,41.47,19.17Zm-1.9,0h-.14a1,1,0,0,1-1-.87A4.28,4.28,0,0,0,38,17a1,1,0,1,1,1.78-.92,6.24,6.24,0,0,1,.62,2A1,1,0,0,1,39.57,19.21ZM20.33,47.53H11.67V22.88h8.66Zm21.34,3.85h0a1.5,1.5,0,0,1-1.5,1.49H34.5A1.5,1.5,0,0,1,33,51.39h0V49.53h8.67Zm2-1.85h8.66v1.85a1.5,1.5,0,0,1-1.5,1.5H45.17a1.49,1.49,0,0,1-1.5-1.49h0Zm8.66-26.65V47.53H43.67V22.88ZM31,51.38h0a1.5,1.5,0,0,1-1.5,1.49H23.83a1.5,1.5,0,0,1-1.5-1.49h0V49.53H31Zm-10.67,0h0a1.49,1.49,0,0,1-1.5,1.49H13.17a1.5,1.5,0,0,1-1.5-1.5V49.53h8.66Z"/></svg>